<?xml version="1.0" standalone="no"?>
<!DOCTYPE svg PUBLIC "-//W3C//DTD SVG 20010904//EN"
 "http://www.w3.org/TR/2001/REC-SVG-20010904/DTD/svg10.dtd">
<svg version="1.0" xmlns="http://www.w3.org/2000/svg"
 width="1600.000000pt" height="1600.000000pt" viewBox="0 0 1600.000000 1600.000000"
 preserveAspectRatio="xMidYMid meet">
<metadata>
Created by potrace 1.11, written by Peter Selinger 2001-2013
</metadata>
<g transform="translate(0.000000,1600.000000) scale(0.100000,-0.100000)"
fill="#000000" stroke="none">
<path d="M9699 15983 c-4 -79 -3 -2403 1 -2404 15 -4 2397 -4 2408 -1 9 3 12
255 12 1213 l0 1209 -1210 0 c-1145 0 -1210 -1 -1211 -17z"/>
<path d="M9699 12360 c0 -3 -1 -1938 -2 -4301 l-2 -4297 -548 -547 -548 -548
-717 -2 -717 -1 -733 731 -732 730 -852 -852 -853 -853 955 -953 c715 -713
974 -966 1031 -1004 134 -91 283 -157 420 -187 41 -9 88 -19 104 -22 17 -4
623 -8 1349 -9 1405 -2 1394 -2 1566 47 110 31 283 117 380 189 58 43 391 369
1045 1023 528 529 978 984 1001 1011 124 152 207 327 250 525 18 82 19 245 19
4705 l0 4619 -1207 1 c-665 0 -1208 -2 -1209 -5z"/>
</g>
</svg>
